M48
; DRILL file {KiCad 6.0.2+dfsg-1} date Sat 19 Feb 2022 11:14:49 PM CET
; FORMAT={-:-/ absolute / inch / decimal}
; #@! TF.CreationDate,2022-02-19T23:14:49+01:00
; #@! TF.GenerationSoftware,Kicad,Pcbnew,6.0.2+dfsg-1
; #@! TF.FileFunction,Plated,1,2,PTH
FMAT,2
INCH
; #@! TA.AperFunction,Plated,PTH,ComponentDrill
T1C0.0079
; #@! TA.AperFunction,Plated,PTH,ViaDrill
T2C0.0157
; #@! TA.AperFunction,Plated,PTH,ComponentDrill
T3C0.0236
; #@! TA.AperFunction,Plated,PTH,ComponentDrill
T4C0.0394
%
G90
G05
T1
X8.1726Y-3.6
X8.2159Y-3.6
T2
X7.7874Y-3.378
X7.8425Y-3.2402
X7.8937Y-2.7795
X7.918Y-4.0575
X7.9252Y-2.8661
X7.9409Y-4.2953
X7.9488Y-2.9252
X7.9803Y-2.9803
X7.9921Y-2.7362
X8.0118Y-3.0512
X8.0197Y-3.7992
X8.0433Y-3.122
X8.0748Y-3.2008
X8.0866Y-3.9606
X8.1024Y-3.5551
X8.1102Y-2.7362
X8.1181Y-3.2362
X8.1268Y-3.6431
X8.127Y-3.0933
X8.19Y-4.0794
X8.2283Y-2.7362
X8.2323Y-2.8465
X8.24Y-3.42
X8.2402Y-3.2362
X8.266Y-3.9888
X8.2717Y-3.2717
X8.3031Y-3.2008
X8.3346Y-3.122
X8.3386Y-2.7362
X8.3426Y-2.9989
X8.3522Y-4.0794
X8.3583Y-3.0512
X8.3858Y-2.9803
X8.4094Y-4.0787
X8.4154Y-2.9252
X8.42Y-3.97
X8.4439Y-2.8661
X8.4449Y-2.7362
X8.45Y-3.6
X8.4724Y-2.8031
X8.5354Y-3.2402
X8.5866Y-3.378
T4
X7.85Y-3.325
X7.85Y-3.425
X7.85Y-3.525
X7.85Y-3.625
X7.85Y-3.725
X7.85Y-3.825
X7.85Y-3.925
X7.85Y-4.025
X7.85Y-4.125
X7.85Y-4.225
X7.9921Y-4.0039
X8.525Y-3.3265
X8.525Y-3.4265
X8.525Y-3.5265
X8.525Y-3.6265
X8.525Y-3.7265
X8.525Y-3.8265
X8.525Y-3.9265
X8.525Y-4.0265
X8.525Y-4.1265
X8.525Y-4.2265
T3
G00X8.0787Y-4.2869
M15
G01X8.0787Y-4.2594
M16
G05
G00X8.2992Y-4.2594
M15
G01X8.2992Y-4.2869
M16
G05
T0
M30
