G04 #@! TF.GenerationSoftware,KiCad,Pcbnew,6.0.2+dfsg-1*
G04 #@! TF.CreationDate,2022-02-19T23:14:45+01:00*
G04 #@! TF.ProjectId,e-tinkers-esp32-c3,652d7469-6e6b-4657-9273-2d6573703332,V1.0*
G04 #@! TF.SameCoordinates,Original*
G04 #@! TF.FileFunction,Legend,Bot*
G04 #@! TF.FilePolarity,Positive*
%FSLAX46Y46*%
G04 Gerber Fmt 4.6, Leading zero omitted, Abs format (unit mm)*
G04 Created by KiCad (PCBNEW 6.0.2+dfsg-1) date 2022-02-19 23:14:45*
%MOMM*%
%LPD*%
G01*
G04 APERTURE LIST*
%ADD10C,0.150000*%
%ADD11C,0.120000*%
G04 APERTURE END LIST*
D10*
X213844142Y-73274333D02*
X213891761Y-73226714D01*
X213939380Y-73083857D01*
X213939380Y-72988619D01*
X213891761Y-72845761D01*
X213796523Y-72750523D01*
X213701285Y-72702904D01*
X213510809Y-72655285D01*
X213367952Y-72655285D01*
X213177476Y-72702904D01*
X213082238Y-72750523D01*
X212987000Y-72845761D01*
X212939380Y-72988619D01*
X212939380Y-73083857D01*
X212987000Y-73226714D01*
X213034619Y-73274333D01*
X213367952Y-73845761D02*
X213320333Y-73750523D01*
X213272714Y-73702904D01*
X213177476Y-73655285D01*
X213129857Y-73655285D01*
X213034619Y-73702904D01*
X212987000Y-73750523D01*
X212939380Y-73845761D01*
X212939380Y-74036238D01*
X212987000Y-74131476D01*
X213034619Y-74179095D01*
X213129857Y-74226714D01*
X213177476Y-74226714D01*
X213272714Y-74179095D01*
X213320333Y-74131476D01*
X213367952Y-74036238D01*
X213367952Y-73845761D01*
X213415571Y-73750523D01*
X213463190Y-73702904D01*
X213558428Y-73655285D01*
X213748904Y-73655285D01*
X213844142Y-73702904D01*
X213891761Y-73750523D01*
X213939380Y-73845761D01*
X213939380Y-74036238D01*
X213891761Y-74131476D01*
X213844142Y-74179095D01*
X213748904Y-74226714D01*
X213558428Y-74226714D01*
X213463190Y-74179095D01*
X213415571Y-74131476D01*
X213367952Y-74036238D01*
X209622666Y-77468142D02*
X209670285Y-77515761D01*
X209813142Y-77563380D01*
X209908380Y-77563380D01*
X210051238Y-77515761D01*
X210146476Y-77420523D01*
X210194095Y-77325285D01*
X210241714Y-77134809D01*
X210241714Y-76991952D01*
X210194095Y-76801476D01*
X210146476Y-76706238D01*
X210051238Y-76611000D01*
X209908380Y-76563380D01*
X209813142Y-76563380D01*
X209670285Y-76611000D01*
X209622666Y-76658619D01*
X209289333Y-76563380D02*
X208622666Y-76563380D01*
X209051238Y-77563380D01*
D11*
X198060000Y-85725000D02*
X198060000Y-108645000D01*
X200720000Y-83125000D02*
X199390000Y-83125000D01*
X200720000Y-85725000D02*
X198060000Y-85725000D01*
X200720000Y-85725000D02*
X200720000Y-108645000D01*
X200720000Y-108645000D02*
X198060000Y-108645000D01*
X200720000Y-84455000D02*
X200720000Y-83125000D01*
X215205000Y-107352000D02*
X215205000Y-108682000D01*
X215205000Y-83162000D02*
X217865000Y-83162000D01*
X215205000Y-106082000D02*
X217865000Y-106082000D01*
X217865000Y-106082000D02*
X217865000Y-83162000D01*
X215205000Y-106082000D02*
X215205000Y-83162000D01*
X215205000Y-108682000D02*
X216535000Y-108682000D01*
X212567000Y-73581580D02*
X212567000Y-73300420D01*
X211547000Y-73581580D02*
X211547000Y-73300420D01*
X209596580Y-78031000D02*
X209315420Y-78031000D01*
X209596580Y-79051000D02*
X209315420Y-79051000D01*
M02*
