G04 #@! TF.GenerationSoftware,KiCad,Pcbnew,6.0.2+dfsg-1*
G04 #@! TF.CreationDate,2022-02-19T23:14:45+01:00*
G04 #@! TF.ProjectId,e-tinkers-esp32-c3,652d7469-6e6b-4657-9273-2d6573703332,V1.0*
G04 #@! TF.SameCoordinates,Original*
G04 #@! TF.FileFunction,Soldermask,Top*
G04 #@! TF.FilePolarity,Negative*
%FSLAX46Y46*%
G04 Gerber Fmt 4.6, Leading zero omitted, Abs format (unit mm)*
G04 Created by KiCad (PCBNEW 6.0.2+dfsg-1) date 2022-02-19 23:14:45*
%MOMM*%
%LPD*%
G01*
G04 APERTURE LIST*
G04 Aperture macros list*
%AMRoundRect*
0 Rectangle with rounded corners*
0 $1 Rounding radius*
0 $2 $3 $4 $5 $6 $7 $8 $9 X,Y pos of 4 corners*
0 Add a 4 corners polygon primitive as box body*
4,1,4,$2,$3,$4,$5,$6,$7,$8,$9,$2,$3,0*
0 Add four circle primitives for the rounded corners*
1,1,$1+$1,$2,$3*
1,1,$1+$1,$4,$5*
1,1,$1+$1,$6,$7*
1,1,$1+$1,$8,$9*
0 Add four rect primitives between the rounded corners*
20,1,$1+$1,$2,$3,$4,$5,0*
20,1,$1+$1,$4,$5,$6,$7,0*
20,1,$1+$1,$6,$7,$8,$9,0*
20,1,$1+$1,$8,$9,$2,$3,0*%
G04 Aperture macros list end*
%ADD10RoundRect,0.250000X0.250000X0.475000X-0.250000X0.475000X-0.250000X-0.475000X0.250000X-0.475000X0*%
%ADD11RoundRect,0.250000X-0.250000X-0.475000X0.250000X-0.475000X0.250000X0.475000X-0.250000X0.475000X0*%
%ADD12R,1.800000X2.500000*%
%ADD13RoundRect,0.250000X-0.262500X-0.450000X0.262500X-0.450000X0.262500X0.450000X-0.262500X0.450000X0*%
%ADD14RoundRect,0.250000X0.262500X0.450000X-0.262500X0.450000X-0.262500X-0.450000X0.262500X-0.450000X0*%
%ADD15R,1.700000X1.250000*%
%ADD16RoundRect,0.243750X-0.243750X-0.456250X0.243750X-0.456250X0.243750X0.456250X-0.243750X0.456250X0*%
%ADD17RoundRect,0.100000X-0.100000X0.250000X-0.100000X-0.250000X0.100000X-0.250000X0.100000X0.250000X0*%
%ADD18R,1.600000X1.000000*%
%ADD19R,1.700000X1.700000*%
%ADD20R,0.650000X1.560000*%
%ADD21R,1.485000X0.900000*%
%ADD22R,4.000000X4.000000*%
%ADD23R,0.900000X0.700000*%
%ADD24RoundRect,0.200000X0.275000X-0.200000X0.275000X0.200000X-0.275000X0.200000X-0.275000X-0.200000X0*%
%ADD25C,0.100000*%
%ADD26R,0.400000X1.350000*%
%ADD27R,1.900000X1.900000*%
%ADD28O,1.200000X1.900000*%
%ADD29O,1.700000X1.700000*%
G04 APERTURE END LIST*
D10*
X208576000Y-88392000D03*
X206676000Y-88392000D03*
D11*
X202241750Y-86556250D03*
X204141750Y-86556250D03*
X202241750Y-84396250D03*
X204141750Y-84396250D03*
X202250000Y-91186000D03*
X204150000Y-91186000D03*
D12*
X207772000Y-97314000D03*
X207772000Y-101314000D03*
D13*
X211353000Y-90897500D03*
X213178000Y-90897500D03*
D14*
X213129500Y-86233000D03*
X211304500Y-86233000D03*
D13*
X211304500Y-84122006D03*
X213129500Y-84122006D03*
D14*
X204158250Y-89096250D03*
X202333250Y-89096250D03*
D15*
X203200000Y-98712000D03*
X203200000Y-93312000D03*
D16*
X211328000Y-88738500D03*
X213203000Y-88738500D03*
D17*
X208784000Y-90377500D03*
X208134000Y-90378000D03*
X207484000Y-90377500D03*
X207484000Y-92502500D03*
X208134000Y-92502500D03*
X208784000Y-92502500D03*
D18*
X208134000Y-91440000D03*
D19*
X203000000Y-101700000D03*
D20*
X212144000Y-97127000D03*
X213094000Y-97127000D03*
X214044000Y-97127000D03*
X214044000Y-94427000D03*
X213094000Y-94427000D03*
X212144000Y-94427000D03*
D10*
X208787000Y-94636000D03*
X206887000Y-94636000D03*
D21*
X199133500Y-69141000D03*
X199133500Y-70641000D03*
X199133500Y-72141000D03*
X199133500Y-73641000D03*
X199133500Y-75141000D03*
X199133500Y-76641000D03*
X199133500Y-78141000D03*
X199133500Y-79641000D03*
X199133500Y-81141000D03*
X216918500Y-81141000D03*
X216918500Y-79641000D03*
X216918500Y-78141000D03*
X216918500Y-76641000D03*
X216918500Y-75141000D03*
X216918500Y-73641000D03*
X216918500Y-72141000D03*
X216918500Y-70641000D03*
X216918500Y-69141000D03*
D22*
X209026000Y-75541000D03*
D23*
X206645000Y-84317000D03*
X206645000Y-85417000D03*
X208675000Y-85417000D03*
X208675000Y-84317000D03*
D24*
X213689000Y-106581000D03*
X213689000Y-104931000D03*
D25*
X206000000Y-106387500D03*
X210000000Y-106387500D03*
D26*
X206700000Y-105837500D03*
X207350000Y-105837500D03*
X208000000Y-105837500D03*
X208650000Y-105837500D03*
X209300000Y-105837500D03*
D27*
X209200000Y-108537500D03*
D28*
X205200000Y-108537500D03*
D27*
X206800000Y-108537500D03*
D28*
X210800000Y-108537500D03*
D27*
X212450000Y-108537500D03*
X203550000Y-108537500D03*
D19*
X199390000Y-84455000D03*
D29*
X199390000Y-86995000D03*
X199390000Y-89535000D03*
X199390000Y-92075000D03*
X199390000Y-94615000D03*
X199390000Y-97155000D03*
X199390000Y-99695000D03*
X199390000Y-102235000D03*
X199390000Y-104775000D03*
X199390000Y-107315000D03*
D19*
X216535000Y-107352000D03*
D29*
X216535000Y-104812000D03*
X216535000Y-102272000D03*
X216535000Y-99732000D03*
X216535000Y-97192000D03*
X216535000Y-94652000D03*
X216535000Y-92112000D03*
X216535000Y-89572000D03*
X216535000Y-87032000D03*
X216535000Y-84492000D03*
M02*
